<svg xmlns="http://www.w3.org/2000/svg" xmlns:xlink="http://www.w3.org/1999/xlink" width="500" zoomAndPan="magnify" viewBox="0 0 375 374.999991" height="500" preserveAspectRatio="xMidYMid meet" version="1.0"><defs><clipPath id="c8280ff409"><path d="M 131.25 233.949219 L 141.050781 233.949219 L 141.050781 243.75 L 131.25 243.75 Z M 131.25 233.949219 " clip-rule="nonzero"/></clipPath><clipPath id="b9401b0aec"><path d="M 136.152344 233.949219 C 133.445312 233.949219 131.25 236.140625 131.25 238.847656 C 131.25 241.554688 133.445312 243.75 136.152344 243.75 C 138.859375 243.75 141.050781 241.554688 141.050781 238.847656 C 141.050781 236.140625 138.859375 233.949219 136.152344 233.949219 Z M 136.152344 233.949219 " clip-rule="nonzero"/></clipPath></defs><path fill="#24282c" d="M 327.835938 0 L 207.382812 0 L 207.382812 111.605469 L 159.085938 40.585938 L 118.503906 0 L 6.488281 0 L 6.488281 334.578125 L 47.074219 375.164062 L 167.285156 375.164062 L 167.285156 264.527344 L 215.09375 334.578125 L 255.679688 375.164062 L 368.421875 375.164062 L 368.421875 40.585938 Z M 327.835938 0 " fill-opacity="1" fill-rule="nonzero"/><path fill="#ffffff" d="M 22.722656 16.234375 L 109.898438 16.234375 L 223.617188 183.359375 L 223.617188 16.234375 L 311.601562 16.234375 L 311.601562 318.34375 L 223.617188 318.34375 L 110.46875 152.433594 L 110.46875 318.261719 L 22.722656 318.261719 Z M 22.722656 16.234375 " fill-opacity="1" fill-rule="nonzero"/><g clip-path="url(#c8280ff409)"><g clip-path="url(#b9401b0aec)"><path fill="#24282c" d="M 131.25 233.949219 L 141.050781 233.949219 L 141.050781 243.75 L 131.25 243.75 Z M 131.25 233.949219 " fill-opacity="1" fill-rule="nonzero"/></g></g></svg>