<svg xmlns="http://www.w3.org/2000/svg" xmlns:xlink="http://www.w3.org/1999/xlink" width="135" zoomAndPan="magnify" viewBox="0 0 101.25 30.000001" height="40" preserveAspectRatio="xMidYMid meet" version="1.0"><defs><g/><clipPath id="e40c0f4148"><path d="M 7.367188 2.902344 L 29.867188 2.902344 L 29.867188 26.128906 L 7.367188 26.128906 Z M 7.367188 2.902344 " clip-rule="nonzero"/></clipPath><clipPath id="5f3c4c08cc"><path d="M 82.648438 2.902344 L 94.1875 2.902344 L 94.1875 14.445312 L 82.648438 14.445312 Z M 82.648438 2.902344 " clip-rule="nonzero"/></clipPath><clipPath id="0dd730f0ca"><path d="M 88.417969 2.902344 C 85.234375 2.902344 82.648438 5.488281 82.648438 8.671875 C 82.648438 11.859375 85.234375 14.445312 88.417969 14.445312 C 91.605469 14.445312 94.1875 11.859375 94.1875 8.671875 C 94.1875 5.488281 91.605469 2.902344 88.417969 2.902344 Z M 88.417969 2.902344 " clip-rule="nonzero"/></clipPath></defs><g clip-path="url(#e40c0f4148)"><path fill="#ffffff" d="M 27.417969 2.902344 L 19.957031 2.902344 L 19.957031 9.816406 L 16.964844 5.417969 L 14.453125 2.902344 L 7.515625 2.902344 L 7.515625 23.625 L 10.027344 26.140625 L 17.472656 26.140625 L 17.472656 19.285156 L 20.433594 23.625 L 22.949219 26.140625 L 29.929688 26.140625 L 29.929688 5.417969 Z M 27.417969 2.902344 " fill-opacity="1" fill-rule="nonzero"/></g><path fill="#24282c" d="M 8.519531 3.910156 L 13.917969 3.910156 L 20.960938 14.257812 L 20.960938 3.910156 L 26.410156 3.910156 L 26.410156 22.621094 L 20.960938 22.621094 L 13.953125 12.34375 L 13.953125 22.613281 L 8.519531 22.613281 Z M 8.519531 3.910156 " fill-opacity="1" fill-rule="nonzero"/><g fill="#ffffff" fill-opacity="1"><g transform="translate(30.107306, 25.366912)"><g><path d="M 10.578125 -4.28125 L 3.109375 -4.28125 C 3.109375 -3.863281 3.179688 -3.460938 3.328125 -3.078125 C 3.472656 -2.691406 3.734375 -2.378906 4.109375 -2.140625 C 4.492188 -1.898438 5.03125 -1.78125 5.71875 -1.78125 C 6.601562 -1.78125 7.238281 -1.914062 7.625 -2.1875 C 8.019531 -2.457031 8.25 -2.84375 8.3125 -3.34375 L 10.390625 -3.34375 C 10.328125 -2.570312 10.078125 -1.925781 9.640625 -1.40625 C 9.210938 -0.882812 8.65625 -0.492188 7.96875 -0.234375 C 7.289062 0.0234375 6.539062 0.15625 5.71875 0.15625 C 4.851562 0.15625 4.128906 0.046875 3.546875 -0.171875 C 2.960938 -0.398438 2.492188 -0.695312 2.140625 -1.0625 C 1.785156 -1.4375 1.515625 -1.84375 1.328125 -2.28125 C 1.140625 -2.71875 1.007812 -3.148438 0.9375 -3.578125 C 0.875 -4.015625 0.84375 -4.410156 0.84375 -4.765625 C 0.84375 -6.628906 1.273438 -8.023438 2.140625 -8.953125 C 3.003906 -9.878906 4.195312 -10.34375 5.71875 -10.34375 C 7.257812 -10.34375 8.453125 -9.859375 9.296875 -8.890625 C 10.148438 -7.921875 10.578125 -6.382812 10.578125 -4.28125 Z M 8.203125 -5.703125 C 8.160156 -6.316406 8.054688 -6.835938 7.890625 -7.265625 C 7.722656 -7.691406 7.46875 -8.019531 7.125 -8.25 C 6.78125 -8.476562 6.304688 -8.59375 5.703125 -8.59375 C 4.828125 -8.59375 4.195312 -8.34375 3.8125 -7.84375 C 3.425781 -7.34375 3.203125 -6.628906 3.140625 -5.703125 Z M 8.203125 -5.703125 "/></g></g></g><g fill="#ffffff" fill-opacity="1"><g transform="translate(41.226783, 25.366912)"><g><path d="M 10.3125 -1.75 L 11.625 -1.75 L 11.625 0 L 9.609375 0 C 9.179688 0 8.828125 -0.140625 8.546875 -0.421875 C 8.265625 -0.703125 8.125 -1.054688 8.125 -1.484375 L 8.125 -1.96875 C 7.925781 -1.394531 7.570312 -0.921875 7.0625 -0.546875 C 6.5625 -0.179688 5.84375 0 4.90625 0 C 4.019531 0 3.273438 -0.171875 2.671875 -0.515625 C 2.078125 -0.867188 1.625 -1.363281 1.3125 -2 C 1 -2.632812 0.84375 -3.378906 0.84375 -4.234375 L 0.84375 -10.1875 L 3.03125 -10.1875 L 3.03125 -4.234375 C 3.03125 -3.441406 3.15625 -2.828125 3.40625 -2.390625 C 3.65625 -1.960938 4.148438 -1.75 4.890625 -1.75 C 5.710938 -1.75 6.359375 -1.898438 6.828125 -2.203125 C 7.296875 -2.515625 7.628906 -2.941406 7.828125 -3.484375 C 8.023438 -4.035156 8.125 -4.675781 8.125 -5.40625 L 8.125 -10.1875 L 10.3125 -10.1875 Z M 10.3125 -1.75 "/></g></g></g><g fill="#ffffff" fill-opacity="1"><g transform="translate(53.394169, 25.366912)"><g><path d="M 0.296875 -8.453125 L 0.296875 -10.1875 L 2.328125 -10.1875 C 2.753906 -10.175781 3.101562 -10.03125 3.375 -9.75 C 3.644531 -9.476562 3.78125 -9.128906 3.78125 -8.703125 L 3.78125 -8.234375 C 3.957031 -8.566406 4.195312 -8.882812 4.5 -9.1875 C 4.800781 -9.488281 5.160156 -9.726562 5.578125 -9.90625 C 5.992188 -10.09375 6.460938 -10.1875 6.984375 -10.1875 C 7.535156 -10.1875 8.046875 -10.132812 8.515625 -10.03125 C 8.984375 -9.9375 9.394531 -9.753906 9.75 -9.484375 C 10.113281 -9.210938 10.414062 -8.828125 10.65625 -8.328125 C 10.894531 -7.835938 11.0625 -7.195312 11.15625 -6.40625 L 8.953125 -6.40625 C 8.953125 -7.101562 8.757812 -7.617188 8.375 -7.953125 C 8 -8.285156 7.539062 -8.453125 7 -8.453125 C 6.28125 -8.453125 5.679688 -8.359375 5.203125 -8.171875 C 4.722656 -7.992188 4.363281 -7.691406 4.125 -7.265625 C 3.894531 -6.847656 3.78125 -6.265625 3.78125 -5.515625 L 3.78125 0 L 1.609375 0 L 1.609375 -8.453125 Z M 0.296875 -8.453125 "/></g></g></g><g fill="#ffffff" fill-opacity="1"><g transform="translate(64.950262, 25.366912)"><g><path d="M 0.84375 -3.078125 C 0.84375 -3.742188 1.015625 -4.289062 1.359375 -4.71875 C 1.710938 -5.15625 2.175781 -5.492188 2.75 -5.734375 C 3.332031 -5.972656 3.960938 -6.125 4.640625 -6.1875 L 9.109375 -6.625 C 9.109375 -6.820312 9.070312 -7.03125 9 -7.25 C 8.925781 -7.476562 8.785156 -7.691406 8.578125 -7.890625 C 8.378906 -8.085938 8.101562 -8.25 7.75 -8.375 C 7.40625 -8.507812 6.960938 -8.578125 6.421875 -8.578125 C 5.554688 -8.578125 4.847656 -8.429688 4.296875 -8.140625 C 3.742188 -7.859375 3.429688 -7.472656 3.359375 -6.984375 L 1.328125 -6.984375 C 1.421875 -7.691406 1.691406 -8.289062 2.140625 -8.78125 C 2.585938 -9.28125 3.175781 -9.664062 3.90625 -9.9375 C 4.644531 -10.207031 5.488281 -10.34375 6.4375 -10.34375 C 7.289062 -10.34375 8.003906 -10.253906 8.578125 -10.078125 C 9.160156 -9.910156 9.628906 -9.6875 9.984375 -9.40625 C 10.347656 -9.125 10.625 -8.804688 10.8125 -8.453125 C 11 -8.097656 11.125 -7.726562 11.1875 -7.34375 C 11.257812 -6.96875 11.296875 -6.613281 11.296875 -6.28125 L 11.296875 0 L 9.109375 0 L 9.109375 -2.828125 C 8.929688 -2.378906 8.671875 -1.972656 8.328125 -1.609375 C 7.984375 -1.242188 7.597656 -0.929688 7.171875 -0.671875 C 6.742188 -0.410156 6.320312 -0.207031 5.90625 -0.0625 C 5.488281 0.0820312 5.125 0.15625 4.8125 0.15625 C 4.039062 0.15625 3.351562 0.0390625 2.75 -0.1875 C 2.15625 -0.425781 1.6875 -0.785156 1.34375 -1.265625 C 1.007812 -1.753906 0.84375 -2.359375 0.84375 -3.078125 Z M 3.03125 -3.03125 C 3.03125 -2.5625 3.207031 -2.203125 3.5625 -1.953125 C 3.925781 -1.710938 4.34375 -1.59375 4.8125 -1.59375 C 5.101562 -1.59375 5.4375 -1.660156 5.8125 -1.796875 C 6.195312 -1.941406 6.59375 -2.15625 7 -2.4375 C 7.40625 -2.726562 7.785156 -3.09375 8.140625 -3.53125 C 8.503906 -3.976562 8.8125 -4.503906 9.0625 -5.109375 L 4.9375 -4.71875 C 4.457031 -4.675781 4.078125 -4.5625 3.796875 -4.375 C 3.523438 -4.195312 3.328125 -3.984375 3.203125 -3.734375 C 3.085938 -3.492188 3.03125 -3.257812 3.03125 -3.03125 Z M 3.03125 -3.03125 "/></g></g></g><g fill="#ffffff" fill-opacity="1"><g transform="translate(76.797449, 25.366912)"><g><path d="M 0.4375 0 L 0.4375 -1.75 L 1.75 -1.75 L 1.75 -11.671875 L 0.4375 -11.671875 L 0.4375 -13.4375 L 2.15625 -13.4375 C 2.445312 -13.4375 2.738281 -13.375 3.03125 -13.25 C 3.332031 -13.125 3.582031 -12.945312 3.78125 -12.71875 C 3.976562 -12.5 4.078125 -12.242188 4.078125 -11.953125 L 4.078125 -1.75 L 5.390625 -1.75 L 5.390625 0 Z M 0.4375 0 "/></g></g></g><g clip-path="url(#5f3c4c08cc)"><g clip-path="url(#0dd730f0ca)"><path fill="#d3f36b" d="M 82.648438 2.902344 L 94.1875 2.902344 L 94.1875 14.445312 L 82.648438 14.445312 Z M 82.648438 2.902344 " fill-opacity="1" fill-rule="nonzero"/></g></g><g fill="#24282c" fill-opacity="1"><g transform="translate(85.726054, 9.858007)"><g><path d="M 0.015625 0 L 0.015625 -0.328125 L 0.4375 -0.328125 L 1.65625 -3.484375 L 2.203125 -3.484375 L 3.4375 -0.328125 L 3.828125 -0.328125 L 3.828125 0 L 2.328125 0 L 2.328125 -0.328125 L 2.84375 -0.328125 L 2.53125 -1.171875 L 1.1875 -1.171875 L 0.890625 -0.328125 L 1.46875 -0.328125 L 1.46875 0 Z M 1.296875 -1.453125 L 2.40625 -1.453125 L 1.84375 -3.03125 Z M 1.296875 -1.453125 "/></g></g><g transform="translate(89.571436, 9.858007)"><g><path d="M 0.78125 -2.921875 C 0.71875 -2.921875 0.660156 -2.9375 0.609375 -2.96875 C 0.554688 -3 0.515625 -3.039062 0.484375 -3.09375 C 0.453125 -3.144531 0.4375 -3.195312 0.4375 -3.25 C 0.4375 -3.320312 0.453125 -3.382812 0.484375 -3.4375 C 0.515625 -3.488281 0.554688 -3.53125 0.609375 -3.5625 C 0.660156 -3.59375 0.71875 -3.609375 0.78125 -3.609375 C 0.832031 -3.609375 0.882812 -3.59375 0.9375 -3.5625 C 1 -3.53125 1.046875 -3.484375 1.078125 -3.421875 C 1.109375 -3.367188 1.125 -3.3125 1.125 -3.25 C 1.125 -3.195312 1.109375 -3.144531 1.078125 -3.09375 C 1.046875 -3.039062 1 -3 0.9375 -2.96875 C 0.882812 -2.9375 0.832031 -2.921875 0.78125 -2.921875 Z M 0.125 0 L 0.125 -0.265625 L 0.578125 -0.265625 L 0.578125 -2.21875 L 0.125 -2.21875 L 0.125 -2.484375 L 1.078125 -2.484375 L 1.078125 -0.265625 L 1.515625 -0.265625 L 1.515625 0 Z M 0.125 0 "/></g></g></g></svg>